<svg xmlns="http://www.w3.org/2000/svg" width="800" height="400" viewBox="0 0 800 400">
  <!-- Background -->
  <rect width="800" height="400" fill="#f5f7fa" />
  
  <!-- Career Path Illustration -->
  <path d="M100,350 C150,250 250,300 300,200 C350,100 450,150 500,50 C550,150 650,100 700,200" stroke="#3498db" stroke-width="8" fill="none" stroke-linecap="round" />
  
  <!-- Milestone Points -->
  <circle cx="100" cy="350" r="15" fill="#e74c3c" />
  <circle cx="300" cy="200" r="15" fill="#f39c12" />
  <circle cx="500" cy="50" r="15" fill="#27ae60" />
  <circle cx="700" cy="200" r="15" fill="#9b59b6" />
  
  <!-- Career Icons -->
  <g transform="translate(85, 335)">
    <rect width="30" height="30" rx="5" fill="#ffffff" stroke="#e74c3c" stroke-width="2" />
    <text x="15" y="20" font-family="Arial" font-size="16" text-anchor="middle" fill="#e74c3c">S</text>
  </g>
  
  <g transform="translate(285, 185)">
    <rect width="30" height="30" rx="5" fill="#ffffff" stroke="#f39c12" stroke-width="2" />
    <text x="15" y="20" font-family="Arial" font-size="16" text-anchor="middle" fill="#f39c12">E</text>
  </g>
  
  <g transform="translate(485, 35)">
    <rect width="30" height="30" rx="5" fill="#ffffff" stroke="#27ae60" stroke-width="2" />
    <text x="15" y="20" font-family="Arial" font-size="16" text-anchor="middle" fill="#27ae60">C</text>
  </g>
  
  <g transform="translate(685, 185)">
    <rect width="30" height="30" rx="5" fill="#ffffff" stroke="#9b59b6" stroke-width="2" />
    <text x="15" y="20" font-family="Arial" font-size="16" text-anchor="middle" fill="#9b59b6">P</text>
  </g>
  
  <!-- Decorative Elements -->
  <circle cx="200" cy="100" r="5" fill="#3498db" opacity="0.5" />
  <circle cx="400" cy="150" r="8" fill="#3498db" opacity="0.5" />
  <circle cx="600" cy="100" r="5" fill="#3498db" opacity="0.5" />
  <circle cx="150" cy="300" r="7" fill="#3498db" opacity="0.5" />
  <circle cx="350" cy="250" r="5" fill="#3498db" opacity="0.5" />
  <circle cx="550" cy="300" r="8" fill="#3498db" opacity="0.5" />
  <circle cx="650" cy="250" r="5" fill="#3498db" opacity="0.5" />
</svg>